<?xml version="1.0" encoding="UTF-8" standalone="no"?>
<svg width="436px" height="162px" viewBox="0 0 436 162" version="1.1" xmlns="http://www.w3.org/2000/svg" xmlns:xlink="http://www.w3.org/1999/xlink" xmlns:sketch="http://www.bohemiancoding.com/sketch/ns">
    <!-- Generator: Sketch 3.4.4 (17249) - http://www.bohemiancoding.com/sketch -->
    <title>Group</title>
    <desc>Created with Sketch.</desc>
    <defs></defs>
    <g id="Page-1" stroke="none" stroke-width="1" fill="none" fill-rule="evenodd" sketch:type="MSPage">
        <g id="ti8m-logo" sketch:type="MSLayerGroup" transform="translate(0.000000, -1.000000)" fill="#FFFFFF">
            <g id="svg2" sketch:type="MSShapeGroup">
                <g id="g10" transform="translate(218.000000, 82.153330) scale(1, -1) translate(-218.000000, -82.153330) translate(0.000000, 0.653330)">
                    <g id="g12" transform="translate(0.000000, 0.000000)">
                        <g id="g14">
                            <g id="g16-Clipped">
                                <g id="g16">
                                    <g id="Group">
                                        <path d="M46.0469322,140.858662 L46.0469322,113.741329 L64.6693317,113.741329 L64.6693317,92.7653298 L46.0469322,92.7653298 L46.0469322,36.3843979 C46.0469322,32.087998 46.9311988,29.018798 48.7078654,27.1759981 C50.4791987,25.3349315 52.8682653,24.4145315 55.8693319,24.4145315 C57.4395986,24.4145315 58.7859985,24.4983982 59.9125318,24.6707982 C61.0363985,24.8401315 62.3505318,25.1306648 63.8499984,25.5385315 L66.409865,3.94786534 C63.4067984,2.92546537 60.4734652,2.15733205 57.6082652,1.64533207 C54.7431986,1.13493208 51.638532,0.87866542 48.2969321,0.87866542 C37.9958657,0.87866542 30.0666659,3.70786535 24.5078661,9.37346521 C18.9463995,15.0333317 16.1677329,24.0041315 16.1677329,36.2838645 L16.1677329,92.7653298 L0,92.7653298 L0,113.741329 L16.1677329,113.741329 L16.1677329,140.858662 L46.0469322,140.858662" id="path78"></path>
                                        <path d="M115.115597,3.02813203 L85.2363979,3.02813203 L85.2363979,113.741329 L115.115597,113.741329 L115.115597,3.02813203 L115.115597,3.02813203 Z M115.115597,140.243995 L85.2363979,140.243995 L85.2363979,162.653328 L115.115597,162.653328 L115.115597,140.243995 L115.115597,140.243995 Z" id="path80"></path>
                                        <path d="M174.258662,115.583996 C174.258662,112.650663 174.990662,109.633329 176.457329,106.527996 C177.923996,103.423996 180.122662,99.9946629 183.058662,96.2453297 L191.857329,101.975996 C195.677328,104.430663 198.254662,106.953329 199.582662,109.547996 C200.915995,112.138663 201.577328,114.970663 201.577328,118.039996 C201.577328,121.450662 200.333328,124.486662 197.846662,127.147996 C195.354662,129.806662 192.097329,131.135995 188.070662,131.135995 C183.634662,131.135995 180.225329,129.653329 177.838662,126.685329 C175.450662,123.718662 174.258662,120.018662 174.258662,115.583996 L174.258662,115.583996 Z M184.695995,23.9026648 C188.309329,23.9026648 191.923995,24.3614648 195.541328,25.2802648 C199.155995,26.1983981 202.637328,27.5759981 205.978662,29.4130647 L175.281329,64.9327972 L173.335996,63.6073305 C169.858662,60.3406639 167.486662,57.1587973 166.226663,54.0635974 C164.961329,50.9661308 164.331996,47.8546642 164.331996,44.724531 C164.331996,38.6677311 166.207996,33.6838646 169.959996,29.7718647 C173.711996,25.8573315 178.622662,23.9026648 184.695995,23.9026648 L184.695995,23.9026648 Z M134.45333,43.1379977 C134.45333,51.1863975 136.66933,58.130264 141.103996,63.9614638 C145.538663,69.794797 152.291996,75.8817302 161.363996,82.2270634 C156.725329,88.5026632 153.263996,94.2319964 150.978663,99.418663 C148.691996,104.598663 147.54933,109.887996 147.54933,115.275996 C147.54933,127.077329 151.23333,136.510662 158.602663,143.569329 C165.967996,150.629328 175.825329,154.161328 188.173329,154.161328 C199.019995,154.161328 207.837328,150.798662 214.623995,144.079995 C221.410661,137.361329 224.807994,129.226662 224.807994,119.675996 C224.807994,112.990663 223.133328,106.886663 219.790661,101.36133 C216.449328,95.834663 211.878661,90.9919965 206.082662,86.8306633 L196.565328,80.0775968 L224.807994,47.1297309 C227.262661,51.2218642 229.173328,55.6567974 230.538661,60.4322639 C231.899994,65.2051971 232.585328,70.2546637 232.585328,75.5745302 L254.89066,75.5745302 C254.89066,66.1625305 253.72666,57.4989307 251.409327,49.5863975 C249.09066,41.6713311 245.542661,34.6458646 240.769327,28.5067981 L262.053327,3.54013202 L261.84666,3.02813203 L228.694661,3.02813203 L220.814661,12.1349318 C215.018661,8.38279857 209.047995,5.56933197 202.910662,3.69213202 C196.771995,1.81719873 190.186662,0.87866542 183.161329,0.87866542 C168.286662,0.87866542 156.453329,4.78279866 147.65333,12.5947985 C138.85333,20.4041316 134.45333,30.585998 134.45333,43.1379977 L134.45333,43.1379977 Z" id="path82"></path>
                                        <path d="M305.130659,113.741329 L306.361326,99.110663 C309.903992,104.430663 314.357325,108.538663 319.713325,111.439996 C325.067992,114.337329 331.257325,115.787996 338.283992,115.787996 C345.379991,115.787996 351.447991,114.217329 356.497324,111.082663 C361.546658,107.942663 365.367991,103.202663 367.958657,96.8573297 C371.370657,102.794663 375.799991,107.431996 381.262657,110.775996 C386.71599,114.117329 393.13199,115.787996 400.49999,115.787996 C411.41199,115.787996 420.023989,112.018663 426.335989,104.481329 C432.643989,96.9453297 435.802656,85.46533 435.802656,70.0510637 L435.802656,3.02813203 L405.921323,3.02813203 L405.921323,70.306797 C405.921323,78.7166635 404.554657,84.56133 401.82799,87.8426632 C399.101323,91.1226632 395.042657,92.7653298 389.654657,92.7653298 C385.421324,92.7653298 381.75599,91.8266631 378.653324,89.9453299 C375.546657,88.0653299 373.073324,85.44933 371.233324,82.1005301 C371.233324,80.8005301 371.266657,79.6906634 371.337324,78.7655968 C371.402657,77.8437302 371.435991,76.9026635 371.435991,75.9453302 L371.435991,3.02813203 L341.662658,3.02813203 L341.662658,70.306797 C341.662658,78.5098635 340.297325,84.3062633 337.570658,87.6906632 C334.838658,91.0733298 330.746658,92.7653298 325.287992,92.7653298 C321.266659,92.7653298 317.731992,91.9959965 314.699992,90.4573298 C311.663992,88.9186632 309.157326,86.7493299 307.177326,83.9447967 L307.177326,3.02813203 L277.403993,3.02813203 L277.403993,113.741329 L305.130659,113.741329" id="path84"></path>
                                    </g>
                                </g>
                            </g>
                        </g>
                    </g>
                </g>
            </g>
        </g>
    </g>
</svg>